<svg width="851" height="614" viewBox="0 0 851 614" fill="none" xmlns="http://www.w3.org/2000/svg">
<g clip-path="url(#clip0_278_1053)">
<path d="M1099.69 378.201L1099.69 378.203L1191.12 468.979C1194.38 472.242 1194.38 477.114 1191.12 480.377L1065.19 606.602C1016.12 655.788 949.825 683.401 880.09 683.401H792.971C725.824 683.401 661.259 656.652 613.912 609.196L456.063 450.982C452.417 447.328 446.925 447.328 443.279 450.982L282.842 611.79C237.219 657.518 175.242 683.401 110.683 683.401H110.679L7.17539 684.266C7.17403 684.266 7.17257 684.266 7.17121 684.266C5.52563 684.265 4.38297 683.852 3.64781 683.116C2.91183 682.378 2.5 681.231 2.5 679.578V542.978C2.5 541.795 2.89146 540.847 3.53999 540.197C4.18841 539.547 5.13295 539.155 6.31282 539.155H112.408C134.969 539.155 155.793 530.456 172.269 514.81L172.273 514.807L342.198 350.542L342.204 350.535C345.849 346.882 345.849 341.378 342.204 337.725L192.986 188.162C192.985 188.161 192.984 188.16 192.983 188.159C166.146 160.394 129.789 145.647 91.7067 145.647H4.58769C3.91148 145.647 3.39777 145.313 3.03771 144.862C2.66506 144.395 2.5 143.854 2.5 143.553V5.22374C2.5 4.7583 2.99708 3.99463 4.58769 3.99463H105.508C175.243 3.99463 242.395 31.6078 292.33 81.6579L714.123 506.155L714.124 506.155C736.647 528.73 766.965 540.885 798.147 540.885H876.64C907.826 540.885 937.28 528.727 959.8 506.155L1088.32 378.202L1088.32 378.201C1091.58 374.939 1096.44 374.939 1099.69 378.201Z" stroke="#F35623"/>
<path d="M1345.53 338.583L1345.52 338.589C1342.74 341.378 1342.74 346.017 1345.52 348.806L1497.33 500.962C1523.3 527.865 1559.66 542.613 1596.88 542.613H1681.41C1682.2 542.613 1682.69 542.81 1683 543.115C1683.3 543.42 1683.5 543.919 1683.5 544.707V682.171C1683.5 682.959 1683.3 683.458 1683 683.764C1682.69 684.069 1682.2 684.265 1681.41 684.265H1583.08C1513.35 684.265 1446.19 655.79 1397.12 606.602L974.465 180.376L974.464 180.375C952.804 158.666 923.349 146.511 892.166 146.511H811.085C780.762 146.511 751.308 158.667 729.65 180.375L599.403 310.923L599.368 310.958L599.341 311C598.591 312.126 597.258 312.722 595.768 312.722C594.279 312.722 592.682 312.123 591.485 310.923L497.466 216.687L497.431 216.652L497.39 216.624C496.266 215.873 495.671 214.536 495.671 213.041C495.671 211.548 496.269 209.947 497.466 208.747L497.467 208.746L627.713 77.3347C675.923 29.0135 740.488 2.26514 808.497 2.26514H893.891C961.901 2.26514 1026.47 29.0135 1074.68 77.3347L1235.11 238.142C1237.9 240.932 1242.53 240.932 1245.31 238.142L1407.47 75.6056C1453.09 29.8775 1515.07 3.99425 1579.63 3.99427L1579.63 3.99423L1677.1 3.12969C1677.1 3.12969 1677.1 3.12969 1677.1 3.12969C1681.1 3.1309 1683.5 6.3217 1683.5 9.54615V141.823C1683.5 145.831 1680.31 148.24 1677.1 148.24H1576.18C1554.48 148.24 1533.66 156.938 1518.04 171.72L1518.04 171.723L1345.53 338.583Z" stroke="#F35623"/>
</g>
<defs>
<clipPath id="clip0_278_1053">
<rect width="851" height="614" fill="white"/>
</clipPath>
</defs>
</svg>
