<svg width="255" height="60" viewBox="0 0 255 60" fill="none" xmlns="http://www.w3.org/2000/svg">
<g clip-path="url(#clip0_160_199)">
<g clip-path="url(#clip1_160_199)">
<path d="M0.443359 27.6279C0.682388 27.3298 0.630237 26.9483 0.71281 26.6062C1.69066 22.5895 5.20221 19.7744 9.32654 19.7612C15.537 19.7437 21.743 19.7612 27.9534 19.748C28.3576 19.748 28.4749 19.8489 28.4662 20.2611C28.4445 22.0107 28.4402 23.7647 28.4662 25.5144C28.4749 25.9792 28.3359 26.08 27.8926 26.08C21.7908 26.0669 15.6934 26.102 9.59165 26.0493C8.00971 26.0362 6.74069 27.2991 6.84064 28.8075C6.91018 29.8073 6.87541 30.8159 6.84064 31.8156C6.82761 32.241 6.9406 32.3594 7.37085 32.355C12.8729 32.3375 18.3792 32.355 23.8812 32.3287C24.4419 32.3287 24.5679 32.4734 24.5549 33.0171C24.5158 34.7317 24.5244 36.4462 24.5549 38.1608C24.5636 38.5993 24.4375 38.7001 24.0116 38.7001C18.4922 38.687 12.9685 38.7001 7.44908 38.6782C6.93191 38.6782 6.84064 38.8361 6.84064 39.314C6.86237 42.6335 6.84064 45.9574 6.86237 49.2768C6.86237 49.7065 6.79718 49.8644 6.31913 49.8556C4.40255 49.8206 2.48162 49.8337 0.565047 49.8293C0.443359 49.6452 0.504203 49.4391 0.504203 49.2461C0.504203 42.3222 0.504203 35.3982 0.499857 28.4743C0.499857 28.2594 0.556355 28.0357 0.447705 27.8297V27.6104L0.443359 27.6279Z" fill="white"/>
<path d="M158.542 49.859C156.765 49.8634 148.563 49.8722 146.785 49.8766C143.952 49.7055 141.536 48.5786 139.536 46.5746C133.374 40.3961 127.22 34.2132 121.088 28.004C119.853 26.7543 118.476 26.0527 116.69 26.1711C115.573 26.2456 114.443 26.2281 113.321 26.1711C111.718 26.0922 110.449 26.7192 109.349 27.8374C107.593 29.6265 105.816 31.3981 104.056 33.1871C103.812 33.4371 103.673 33.5116 103.391 33.2178C102.118 31.8979 100.818 30.5956 99.5143 29.3064C99.2578 29.0564 99.2665 28.9249 99.5143 28.6749C101.37 26.8289 103.195 24.9521 105.051 23.106C107.311 20.8608 110.045 19.7426 113.217 19.7558C114.882 19.7646 116.546 19.6856 118.211 19.8172C120.905 20.0277 123.196 21.1371 125.108 23.0183C127.415 25.2853 129.68 27.6006 131.944 29.9115C132.253 30.2229 132.409 30.2623 132.739 29.9247C134.951 27.662 137.181 25.4169 139.415 23.1805C141.679 20.9178 144.391 19.7295 147.598 19.747C148.954 19.7558 150.314 19.7602 151.67 19.7426C152.018 19.7383 152.135 19.8304 152.131 20.1987C152.114 22.0404 152.114 23.8865 152.131 25.7282C152.131 26.0966 152.018 26.1886 151.67 26.1843C150.314 26.1667 148.954 26.2062 147.598 26.1667C146.294 26.1272 145.151 26.5219 144.234 27.4252C141.827 29.7975 139.458 32.2093 137.068 34.5991C136.898 34.7701 136.907 34.8754 137.068 35.0376C139.463 37.4275 141.84 39.8305 144.243 42.2071C145.164 43.1192 146.316 43.4963 147.607 43.4788C148.963 43.4613 156.752 43.4788 158.107 43.47C158.403 43.47 158.564 43.5007 158.559 43.8735C158.533 45.8643 158.538 47.8507 158.533 49.8415L158.542 49.859Z" fill="white"/>
<path d="M115.104 49.8817C113.514 49.8598 111.919 49.9738 110.354 49.5704C108.342 49.053 106.595 48.0707 105.126 46.6017C102.836 44.3128 100.558 42.0194 98.2983 39.7041C97.9854 39.384 97.8333 39.4322 97.5508 39.7216C95.3213 41.9887 93.0918 44.2601 90.8319 46.4965C88.5937 48.7153 85.9253 49.9256 82.7441 49.8817C81.349 49.8642 73.5255 49.8686 72.1348 49.8817C71.8132 49.8817 71.7002 49.8116 71.7002 49.4608C71.7176 47.6015 71.7132 45.7379 71.7002 43.8743C71.7002 43.5585 71.8002 43.4752 72.1 43.4796C73.4212 43.4928 81.1708 43.4533 82.492 43.4928C84.0392 43.5454 85.3125 42.9841 86.3903 41.901C88.6329 39.6427 90.8667 37.38 93.1179 35.1305C93.3526 34.8981 93.3656 34.7709 93.1223 34.5254C90.858 32.2627 88.6111 29.9869 86.3556 27.7198C85.3082 26.6674 84.0739 26.1061 82.5572 26.1675C81.2751 26.2201 79.9887 26.1588 78.7023 26.1895C78.2677 26.1982 78.1112 26.1105 78.1199 25.6326C78.1504 23.8435 78.1417 22.0544 78.1199 20.2653C78.1156 19.875 78.1895 19.7259 78.6197 19.7391C80.3364 19.7917 82.0574 19.6777 83.7741 19.8005C86.486 20.0022 88.798 21.1335 90.7102 23.0454C96.8859 29.2327 103.044 35.4375 109.194 41.6554C110.428 42.9008 111.819 43.5892 113.596 43.4884C114.696 43.427 115.804 43.4401 116.908 43.4884C118.52 43.5542 119.82 42.9315 120.932 41.8001C122.688 40.0111 124.47 38.2439 126.221 36.446C126.525 36.1347 126.686 36.1478 126.977 36.4504C128.242 37.7571 129.529 39.0376 130.811 40.3268C130.971 40.489 131.119 40.603 130.876 40.8442C128.798 42.9052 126.791 45.0407 124.652 47.0315C122.549 48.9872 119.989 49.9037 117.112 49.8686C116.443 49.8598 115.774 49.8686 115.104 49.8686V49.8817Z" fill="white"/>
<path d="M202.853 9.12305L209.142 9.13182C209.142 10.3552 209.151 11.5787 209.151 12.7977C209.151 24.953 209.151 37.1039 209.164 49.2592C209.164 49.7722 209.016 49.8775 208.542 49.8687C206.786 49.838 205.031 49.8512 203.275 49.8643C202.984 49.8643 202.827 49.8468 202.827 49.4697C202.84 36.0559 202.836 22.6421 202.84 9.23267C202.84 9.19759 202.849 9.16251 202.858 9.12305H202.853Z" fill="white"/>
<path d="M33.2597 49.8595C33.251 49.6578 33.2293 49.4604 33.2293 49.2587C33.2293 36.0992 33.2293 22.9398 33.2119 9.78032C33.2119 9.20588 33.3771 9.09625 33.9029 9.10941C35.5327 9.14449 37.1624 9.14449 38.7922 9.10941C39.318 9.09625 39.4875 9.20588 39.4832 9.78032C39.4571 14.4548 39.4658 19.1248 39.4658 23.7992C39.4658 32.2667 39.4658 40.7386 39.4658 49.2061C39.4658 49.4253 39.4484 49.6402 39.4354 49.8595H33.2554H33.2597Z" fill="white"/>
<path d="M156.899 34.7847C156.899 29.9655 156.904 25.1464 156.891 20.3272C156.891 19.8887 156.978 19.7396 157.443 19.7484C159.198 19.7791 160.954 19.7791 162.71 19.7484C163.175 19.7396 163.271 19.8931 163.266 20.336C163.253 29.9918 163.253 39.6477 163.266 49.3035C163.266 49.7245 163.171 49.8604 162.732 49.856C160.976 49.8297 159.22 49.8209 157.464 49.856C156.947 49.8692 156.891 49.685 156.891 49.2377C156.904 44.4186 156.899 39.5994 156.899 34.7803V34.7847Z" fill="white"/>
<path d="M156.903 15.4673C156.894 13.4634 156.886 11.4594 156.868 9.45548C156.868 9.19237 156.959 9.10906 157.216 9.11344C159.202 9.13098 161.192 9.13537 163.179 9.14414C163.179 11.0955 163.17 13.0468 163.192 14.9982C163.192 15.384 163.087 15.4849 162.709 15.4805C160.775 15.4586 158.841 15.4673 156.903 15.4673V15.4673Z" fill="white"/>
<path fill-rule="evenodd" clip-rule="evenodd" d="M168.067 9.96263C168.084 10.3107 168.101 10.6582 167.99 10.9995L167.995 11.0039C167.999 11.1135 167.999 11.2231 167.999 11.3327C167.999 14.6053 167.998 17.8783 167.997 21.1515C167.995 27.6983 167.993 34.2458 167.999 40.7914C168.003 45.8736 171.962 49.8508 176.995 49.8508H189.268C194.053 49.8464 198.064 45.8122 198.069 40.9974V28.6229C198.069 27.7591 197.934 26.9127 197.678 26.0927C196.474 22.2032 193.097 19.7564 188.894 19.752C184.24 19.7432 179.59 19.7476 174.935 19.7783C174.435 19.7783 174.357 19.6292 174.357 19.1688C174.37 16.6631 174.369 14.1599 174.367 11.6554C174.366 10.8201 174.366 9.9847 174.366 9.149C173.871 9.14681 173.377 9.1449 172.883 9.14298C171.397 9.13722 169.912 9.13147 168.425 9.11831C168.142 9.11392 168.064 9.21039 168.055 9.49103C168.051 9.64798 168.059 9.80536 168.067 9.96263ZM184.05 26.1611C183.366 26.1576 182.682 26.154 181.997 26.154C181.356 26.154 180.715 26.155 180.073 26.156C178.362 26.1586 176.65 26.1612 174.94 26.1453C174.509 26.1409 174.362 26.2242 174.362 26.7022C174.378 30.3344 174.377 33.9666 174.375 37.5988C174.375 38.6367 174.375 39.6745 174.375 40.7123C174.375 42.3567 175.426 43.4179 177.047 43.4179H188.99C190.694 43.4179 191.715 42.383 191.715 40.6597C191.715 39.5548 191.711 38.4498 191.708 37.3449C191.699 34.5822 191.69 31.8196 191.737 29.0569C191.763 27.4476 190.694 26.097 188.838 26.1409C187.241 26.1777 185.646 26.1694 184.05 26.1611Z" fill="white"/>
<path fill-rule="evenodd" clip-rule="evenodd" d="M59.4245 49.8395C60.316 49.8429 61.2077 49.8462 62.0998 49.8462H62.0955C62.856 49.8462 63.6166 49.8451 64.3771 49.844C66.6588 49.8407 68.9404 49.8374 71.222 49.8637C71.8044 49.8725 71.9 49.6883 71.8913 49.1621C71.8565 47.4651 71.8565 45.7681 71.8913 44.0711C71.9044 43.558 71.7522 43.444 71.2611 43.444C66.5676 43.4546 61.8768 43.4539 57.1844 43.4532C56.0111 43.453 54.8378 43.4528 53.6643 43.4528C52.2171 43.4528 51.3001 42.7819 50.822 41.3918C50.6603 40.9178 50.655 40.4351 50.6496 39.9514C50.6473 39.746 50.645 39.5404 50.6308 39.3353C50.596 38.8485 50.7264 38.6994 51.2392 38.6994C52.1576 38.7037 53.0759 38.7093 53.9943 38.7149C57.7826 38.7381 61.571 38.7613 65.3593 38.6907C68.9317 38.6249 71.7044 37.02 73.2646 33.6917C74.3511 31.3721 74.2859 28.8726 73.6905 26.4564C72.7127 22.4705 69.1447 19.7824 65.0681 19.7693C61.8086 19.7605 58.5492 19.7605 55.2897 19.7693C55.0615 19.7702 54.8334 19.7693 54.6052 19.7685C53.7684 19.7653 52.9311 19.7621 52.091 19.8482C47.8363 20.2867 44.303 24.1631 44.2813 28.4823C44.2596 32.5516 44.2422 36.6209 44.2856 40.6902C44.3378 45.4305 48.2926 49.9251 53.4079 49.8549C55.4145 49.8246 57.4191 49.8321 59.4245 49.8395ZM56.3988 32.3359C56.9825 32.3365 57.566 32.337 58.1493 32.337H61.5696C61.905 32.337 62.2404 32.339 62.5759 32.3409C63.4704 32.3462 64.3648 32.3514 65.2593 32.3195C66.4501 32.28 67.7365 31.71 67.6366 29.8332C67.6274 29.6601 67.6303 29.487 67.6332 29.3139C67.6358 29.1581 67.6384 29.0023 67.6322 28.8465C67.567 27.1846 66.537 26.1848 64.8943 26.1848H53.4383C51.6868 26.1848 50.6525 27.2197 50.6394 29.0044C50.6362 29.3551 50.639 29.7065 50.6417 30.058C50.6464 30.6557 50.651 31.2539 50.6264 31.8503C50.609 32.2888 50.7611 32.3458 51.1436 32.3458C52.8941 32.3326 54.647 32.3343 56.3988 32.3359Z" fill="white"/>
<path fill-rule="evenodd" clip-rule="evenodd" d="M229.04 49.8387C229.934 49.8425 230.827 49.8463 231.719 49.8463H231.715C232.489 49.8463 233.262 49.8457 234.036 49.8452C236.358 49.8435 238.682 49.8419 241.002 49.855C241.407 49.8594 241.524 49.7586 241.52 49.342C241.498 47.5748 241.485 45.8033 241.524 44.0317C241.537 43.5143 241.363 43.4441 240.911 43.4441C236.218 43.4547 231.524 43.454 226.831 43.4533C225.657 43.4531 224.484 43.4529 223.31 43.4529C221.819 43.4529 220.885 42.7469 220.424 41.2999C220.275 40.825 220.285 40.3448 220.294 39.8634C220.297 39.7269 220.299 39.5903 220.298 39.4538C220.294 39.0266 220.272 38.8418 220.353 38.7636C220.432 38.6869 220.611 38.7127 221.002 38.7127H234.692C235.274 38.7127 235.852 38.6951 236.422 38.5811C239.699 37.9278 242.054 36.1387 243.219 32.9113C243.685 31.6294 243.67 30.2855 243.656 28.9488C243.655 28.8634 243.654 28.7782 243.654 28.6929C243.601 23.7729 239.673 19.8001 234.788 19.7694C230.785 19.7474 226.787 19.7474 222.784 19.7694C217.851 19.7957 213.918 23.808 213.918 28.785V40.3922C213.914 40.9578 213.949 41.5235 214.049 42.0804C214.801 46.3163 218.49 49.9296 223.084 49.855C225.068 49.8218 227.055 49.8302 229.04 49.8387ZM226.049 32.3357C226.633 32.3362 227.216 32.3368 227.8 32.3368H230.242C230.703 32.3368 231.165 32.3384 231.627 32.3401C232.666 32.3438 233.706 32.3476 234.745 32.3324C236.196 32.3105 237.113 31.622 237.243 30.4249C237.309 29.7934 237.313 29.1445 237.243 28.513C237.087 27.0879 236.044 26.1846 234.636 26.1846H222.915C221.372 26.189 220.307 27.2633 220.294 28.8331C220.291 29.2098 220.293 29.5864 220.295 29.9629C220.299 30.59 220.303 31.2165 220.281 31.8413C220.268 32.2666 220.407 32.3455 220.798 32.3455C222.549 32.3324 224.299 32.334 226.049 32.3357Z" fill="white"/>
<path d="M248.717 15.831V11.4365H250.648C251.036 11.4365 251.331 11.4765 251.533 11.5564C251.735 11.6344 251.897 11.7733 252.017 11.9731C252.138 12.1729 252.199 12.3937 252.199 12.6356C252.199 12.9473 252.099 13.2101 251.899 13.4239C251.699 13.6377 251.39 13.7736 250.972 13.8316C251.124 13.9055 251.24 13.9785 251.319 14.0504C251.488 14.2063 251.647 14.4011 251.798 14.6349L252.555 15.831H251.83L251.254 14.9167C251.086 14.6529 250.947 14.4511 250.838 14.3112C250.729 14.1713 250.631 14.0734 250.544 14.0174C250.459 13.9615 250.372 13.9225 250.282 13.9005C250.217 13.8865 250.11 13.8795 249.962 13.8795H249.293V15.831H248.717ZM249.293 13.376H250.532C250.795 13.376 251.001 13.349 251.15 13.295C251.298 13.2391 251.411 13.1511 251.489 13.0312C251.566 12.9093 251.604 12.7774 251.604 12.6356C251.604 12.4277 251.529 12.2569 251.379 12.123C251.23 11.9891 250.994 11.9221 250.672 11.9221H249.293V13.376Z" fill="white"/>
<path fill-rule="evenodd" clip-rule="evenodd" d="M250.437 17.5855C252.597 17.5855 254.348 15.8185 254.348 13.6389C254.348 11.4593 252.597 9.69241 250.437 9.69241C248.277 9.69241 246.525 11.4593 246.525 13.6389C246.525 15.8185 248.277 17.5855 250.437 17.5855ZM250.437 18.024C252.837 18.024 254.783 16.0607 254.783 13.6389C254.783 11.2171 252.837 9.25391 250.437 9.25391C248.037 9.25391 246.091 11.2171 246.091 13.6389C246.091 16.0607 248.037 18.024 250.437 18.024Z" fill="white"/>
</g>
</g>
<defs>
<clipPath id="clip0_160_199">
<rect width="255" height="60" fill="white"/>
</clipPath>
<clipPath id="clip1_160_199">
<rect width="254.566" height="41" fill="white" transform="translate(0.43457 9)"/>
</clipPath>
</defs>
</svg>
